<svg xmlns="http://www.w3.org/2000/svg" viewBox="0 0 800 500" role="img" aria-label="Servers illustration">
  <defs>
    <linearGradient id="ss-bg" x1="0" y1="0" x2="1" y2="1">
      <stop offset="0" stop-color="#0b1120"/>
      <stop offset="1" stop-color="#1d4ed8"/>
    </linearGradient>
  </defs>
  <rect x="0" y="0" width="800" height="500" rx="32" fill="url(#ss-bg)"/>
  <rect x="150" y="110" width="190" height="260" rx="16" fill="#020617" stroke="#1f2937" stroke-width="4"/>
  <rect x="170" y="135" width="150" height="40" rx="8" fill="#0b1120"/>
  <rect x="170" y="190" width="150" height="40" rx="8" fill="#0b1120"/>
  <rect x="170" y="245" width="150" height="40" rx="8" fill="#0b1120"/>
  <rect x="170" y="300" width="150" height="40" rx="8" fill="#0b1120"/>
  <g fill="#22c55e">
    <circle cx="185" cy="155" r="4"/><circle cx="199" cy="155" r="4"/>
    <circle cx="185" cy="210" r="4"/><circle cx="199" cy="210" r="4"/>
    <circle cx="185" cy="265" r="4"/><circle cx="199" cy="265" r="4"/>
    <circle cx="185" cy="320" r="4"/><circle cx="199" cy="320" r="4"/>
  </g>
  <rect x="380" y="150" width="220" height="220" rx="20" fill="#020617" stroke="#1f2937" stroke-width="4"/>
  <rect x="400" y="175" width="180" height="60" rx="10" fill="#0b1120"/>
  <rect x="400" y="245" width="180" height="60" rx="10" fill="#0b1120"/>
  <rect x="400" y="315" width="180" height="30" rx="8" fill="#111827"/>
</svg>


