<svg xmlns="http://www.w3.org/2000/svg" viewBox="0 0 800 500" role="img" aria-label="Firewall and WiFi illustration">
  <defs>
    <linearGradient id="sfw-bg" x1="0" y1="0" x2="1" y2="1">
      <stop offset="0" stop-color="#0b1120"/>
      <stop offset="1" stop-color="#1d4ed8"/>
    </linearGradient>
  </defs>
  <rect x="0" y="0" width="800" height="500" rx="32" fill="url(#sfw-bg)"/>
  <rect x="140" y="130" width="260" height="240" rx="18" fill="#111827" stroke="#1f2937" stroke-width="4"/>
  <g fill="#f97316">
    <rect x="160" y="155" width="220" height="38" rx="8"/>
    <rect x="160" y="205" width="220" height="38" rx="8"/>
    <rect x="160" y="255" width="220" height="38" rx="8"/>
    <rect x="160" y="305" width="220" height="38" rx="8"/>
  </g>
  <path d="M520 330c0-44 36-80 80-80s80 36 80 80" fill="none" stroke="#bfdbfe" stroke-width="12" stroke-linecap="round"/>
  <path d="M540 320c0-32 26-58 58-58s58 26 58 58" fill="none" stroke="#93c5fd" stroke-width="10" stroke-linecap="round"/>
  <path d="M560 310c0-20 16-36 36-36s36 16 36 36" fill="none" stroke="#60a5fa" stroke-width="8" stroke-linecap="round"/>
  <circle cx="640" cy="332" r="14" fill="#22c55e"/>
</svg>


